<?xml version="1.0" encoding="UTF-8" standalone="no"?>
<!DOCTYPE svg PUBLIC "-//W3C//DTD SVG 1.1//EN"
 "http://www.w3.org/Graphics/SVG/1.1/DTD/svg11.dtd">
<!-- Generated by graphviz version 7.1.0 (20230121.1956)
 -->
<!-- Pages: 1 -->
<svg width="446pt" height="714pt"
 viewBox="0.00 0.00 446.33 714.00" xmlns="http://www.w3.org/2000/svg" xmlns:xlink="http://www.w3.org/1999/xlink">
<g id="graph0" class="graph" transform="scale(1 1) rotate(0) translate(4 710)">
<polygon fill="white" stroke="none" points="-4,4 -4,-710 442.33,-710 442.33,4 -4,4"/>
<g id="clust1" class="cluster">
<title>cluster&#45;if&#45;L59C2</title>
<polygon fill="none" stroke="black" points="211,-515 211,-590 344,-590 344,-515 211,-515"/>
<text text-anchor="middle" x="277.5" y="-574.8" font-family="Times,serif" font-size="14.00">if(run_bam_to_fastq)</text>
</g>
<g id="clust2" class="cluster">
<title>cluster&#45;if&#45;L119C2</title>
<polygon fill="none" stroke="black" points="111,-8 111,-155 356,-155 356,-8 111,-8"/>
<text text-anchor="middle" x="233.5" y="-139.8" font-family="Times,serif" font-size="14.00">if(checkm2.passed_bin_count_nonempty)</text>
</g>
<!-- call&#45;backend_configuration -->
<g id="node1" class="node">
<title>call&#45;backend_configuration</title>
<polygon fill="none" stroke="black" points="297.5,-700 168.5,-700 168.5,-676 297.5,-676 309.5,-688 297.5,-700"/>
<text text-anchor="middle" x="239" y="-684.3" font-family="Times,serif" font-size="14.00">backend_configuration</text>
</g>
<!-- decl&#45;default_runtime_attributes -->
<g id="node2" class="node">
<title>decl&#45;default_runtime_attributes</title>
<text text-anchor="middle" x="239" y="-612.3" font-family="Times,serif" font-size="14.00">default_runtime_attributes</text>
</g>
<!-- call&#45;backend_configuration&#45;&gt;decl&#45;default_runtime_attributes -->
<g id="edge1" class="edge">
<title>call&#45;backend_configuration&#45;&gt;decl&#45;default_runtime_attributes</title>
<path fill="none" stroke="black" d="M239,-669.7C239,-662.21 239,-653.26 239,-644.88"/>
<polygon fill="black" stroke="black" points="242.5,-645.14 239,-635.14 235.5,-645.14 242.5,-645.14"/>
</g>
<!-- call&#45;bam_to_fastq -->
<g id="node3" class="node">
<title>call&#45;bam_to_fastq</title>
<polygon fill="none" stroke="black" points="319.5,-553 240.5,-553 240.5,-529 319.5,-529 331.5,-541 319.5,-553"/>
<text text-anchor="middle" x="286" y="-537.3" font-family="Times,serif" font-size="14.00">bam_to_fastq</text>
</g>
<!-- decl&#45;default_runtime_attributes&#45;&gt;call&#45;bam_to_fastq -->
<g id="edge2" class="edge">
<title>decl&#45;default_runtime_attributes&#45;&gt;call&#45;bam_to_fastq</title>
<path fill="none" stroke="black" d="M249.9,-598.07C255.46,-589.44 262.34,-578.74 268.61,-569.01"/>
<polygon fill="black" stroke="black" points="271.54,-570.92 274.01,-560.62 265.66,-567.13 271.54,-570.92"/>
</g>
<!-- call&#45;hifiasm_meta -->
<g id="node5" class="node">
<title>call&#45;hifiasm_meta</title>
<polygon fill="none" stroke="black" points="292,-481 212,-481 212,-457 292,-457 304,-469 292,-481"/>
<text text-anchor="middle" x="258" y="-465.3" font-family="Times,serif" font-size="14.00">hifiasm_meta</text>
</g>
<!-- decl&#45;default_runtime_attributes&#45;&gt;call&#45;hifiasm_meta -->
<g id="edge4" class="edge">
<title>decl&#45;default_runtime_attributes&#45;&gt;call&#45;hifiasm_meta</title>
<path fill="none" stroke="black" d="M212.6,-598.02C210.37,-595.59 208.42,-592.91 207,-590 192.39,-560.04 193.29,-545.38 207,-515 210.41,-507.45 215.77,-500.66 221.77,-494.78"/>
<polygon fill="black" stroke="black" points="223.89,-497.58 229.08,-488.34 219.26,-492.33 223.89,-497.58"/>
</g>
<!-- call&#45;completeness_aware_binning -->
<g id="node6" class="node">
<title>call&#45;completeness_aware_binning</title>
<polygon fill="none" stroke="black" points="193.5,-409 28.5,-409 28.5,-385 193.5,-385 205.5,-397 193.5,-409"/>
<text text-anchor="middle" x="117" y="-393.3" font-family="Times,serif" font-size="14.00">completeness_aware_binning</text>
</g>
<!-- decl&#45;default_runtime_attributes&#45;&gt;call&#45;completeness_aware_binning -->
<g id="edge6" class="edge">
<title>decl&#45;default_runtime_attributes&#45;&gt;call&#45;completeness_aware_binning</title>
<path fill="none" stroke="black" d="M158.53,-599.66C150.54,-596.84 144.19,-593.62 141,-590 100.96,-544.59 105.4,-467.97 111.54,-426.58"/>
<polygon fill="black" stroke="black" points="114.96,-427.35 113.12,-416.91 108.05,-426.22 114.96,-427.35"/>
</g>
<!-- call&#45;coverage -->
<g id="node7" class="node">
<title>call&#45;coverage</title>
<polygon fill="none" stroke="black" points="315.5,-337 262.5,-337 262.5,-313 315.5,-313 327.5,-325 315.5,-337"/>
<text text-anchor="middle" x="295" y="-321.3" font-family="Times,serif" font-size="14.00">coverage</text>
</g>
<!-- decl&#45;default_runtime_attributes&#45;&gt;call&#45;coverage -->
<g id="edge9" class="edge">
<title>decl&#45;default_runtime_attributes&#45;&gt;call&#45;coverage</title>
<path fill="none" stroke="black" d="M319.43,-603.51C332.68,-600.02 343.55,-595.58 348,-590 404.39,-519.21 345.18,-404.51 312.97,-352.8"/>
<polygon fill="black" stroke="black" points="316.07,-351.15 307.74,-344.6 310.17,-354.91 316.07,-351.15"/>
</g>
<!-- call&#45;binning -->
<g id="node8" class="node">
<title>call&#45;binning</title>
<polygon fill="none" stroke="black" points="244,-265 198,-265 198,-241 244,-241 256,-253 244,-265"/>
<text text-anchor="middle" x="227" y="-249.3" font-family="Times,serif" font-size="14.00">binning</text>
</g>
<!-- decl&#45;default_runtime_attributes&#45;&gt;call&#45;binning -->
<g id="edge12" class="edge">
<title>decl&#45;default_runtime_attributes&#45;&gt;call&#45;binning</title>
<path fill="none" stroke="black" d="M198.73,-598.04C196.12,-595.68 193.81,-593.01 192,-590 174.83,-561.43 189.17,-548.21 192,-515 194.45,-486.24 195.97,-478.99 203,-451 207.11,-434.64 211.68,-431.54 215,-415 224.19,-369.19 226.5,-314.77 226.99,-282.38"/>
<polygon fill="black" stroke="black" points="230.49,-282.66 227.09,-272.62 223.49,-282.59 230.49,-282.66"/>
</g>
<!-- call&#45;checkm2 -->
<g id="node9" class="node">
<title>call&#45;checkm2</title>
<polygon fill="none" stroke="black" points="244,-193 190,-193 190,-169 244,-169 256,-181 244,-193"/>
<text text-anchor="middle" x="223" y="-177.3" font-family="Times,serif" font-size="14.00">checkm2</text>
</g>
<!-- decl&#45;default_runtime_attributes&#45;&gt;call&#45;checkm2 -->
<g id="edge16" class="edge">
<title>decl&#45;default_runtime_attributes&#45;&gt;call&#45;checkm2</title>
<path fill="none" stroke="black" d="M319.22,-607.44C342.84,-603.65 364.61,-598.09 373,-590 412.36,-552.06 400,-524.67 400,-470 400,-470 400,-470 400,-324 400,-255.96 319.43,-215.09 267.01,-195.7"/>
<polygon fill="black" stroke="black" points="268.31,-192.45 257.72,-192.4 265.97,-199.05 268.31,-192.45"/>
</g>
<!-- call&#45;gtdbtk -->
<g id="node10" class="node">
<title>call&#45;gtdbtk</title>
<polygon fill="none" stroke="black" points="177,-118 135,-118 135,-94 177,-94 189,-106 177,-118"/>
<text text-anchor="middle" x="162" y="-102.3" font-family="Times,serif" font-size="14.00">gtdbtk</text>
</g>
<!-- decl&#45;default_runtime_attributes&#45;&gt;call&#45;gtdbtk -->
<g id="edge21" class="edge">
<title>decl&#45;default_runtime_attributes&#45;&gt;call&#45;gtdbtk</title>
<path fill="none" stroke="black" d="M158.63,-608.68C140.51,-604.91 121.93,-599.05 106,-590 44.12,-554.86 0,-541.16 0,-470 0,-470 0,-470 0,-252 0,-185.68 76.32,-142.09 124.19,-121.27"/>
<polygon fill="black" stroke="black" points="125.26,-124.62 133.12,-117.52 122.55,-118.16 125.26,-124.62"/>
</g>
<!-- call&#45;mag -->
<g id="node11" class="node">
<title>call&#45;mag</title>
<polygon fill="none" stroke="black" points="256,-46 214,-46 214,-22 256,-22 268,-34 256,-46"/>
<text text-anchor="middle" x="241" y="-30.3" font-family="Times,serif" font-size="14.00">mag</text>
</g>
<!-- decl&#45;default_runtime_attributes&#45;&gt;call&#45;mag -->
<g id="edge26" class="edge">
<title>decl&#45;default_runtime_attributes&#45;&gt;call&#45;mag</title>
<path fill="none" stroke="black" d="M319.27,-610.52C353.48,-607.04 388.4,-600.88 401,-590 443.24,-553.52 438,-525.81 438,-470 438,-470 438,-470 438,-180 438,-101.97 336.51,-61.25 279.22,-44.48"/>
<polygon fill="black" stroke="black" points="280.42,-41.19 269.85,-41.85 278.53,-47.93 280.42,-41.19"/>
</g>
<!-- call&#45;bam_to_fastq&#45;&gt;call&#45;hifiasm_meta -->
<g id="edge3" class="edge">
<title>call&#45;bam_to_fastq&#45;&gt;call&#45;hifiasm_meta</title>
<path fill="none" stroke="black" d="M279.08,-522.7C276.06,-515.15 272.45,-506.12 269.07,-497.68"/>
<polygon fill="black" stroke="black" points="272.37,-496.49 265.4,-488.51 265.87,-499.09 272.37,-496.49"/>
</g>
<!-- if&#45;L59C2 -->
<!-- call&#45;hifiasm_meta&#45;&gt;call&#45;completeness_aware_binning -->
<g id="edge5" class="edge">
<title>call&#45;hifiasm_meta&#45;&gt;call&#45;completeness_aware_binning</title>
<path fill="none" stroke="black" d="M222.78,-450.52C204.39,-441.39 181.68,-430.11 162.03,-420.35"/>
<polygon fill="black" stroke="black" points="163.64,-417.25 153.12,-415.93 160.52,-423.52 163.64,-417.25"/>
</g>
<!-- call&#45;hifiasm_meta&#45;&gt;call&#45;coverage -->
<g id="edge8" class="edge">
<title>call&#45;hifiasm_meta&#45;&gt;call&#45;coverage</title>
<path fill="none" stroke="black" d="M262.54,-450.59C268.81,-426.5 280.21,-382.75 287.7,-354.03"/>
<polygon fill="black" stroke="black" points="291.03,-355.13 290.16,-344.58 284.25,-353.37 291.03,-355.13"/>
</g>
<!-- call&#45;completeness_aware_binning&#45;&gt;call&#45;coverage -->
<g id="edge7" class="edge">
<title>call&#45;completeness_aware_binning&#45;&gt;call&#45;coverage</title>
<path fill="none" stroke="black" d="M161.46,-378.52C189,-367.68 224.22,-353.84 251.57,-343.08"/>
<polygon fill="black" stroke="black" points="252.57,-346.45 260.6,-339.53 250.01,-339.93 252.57,-346.45"/>
</g>
<!-- call&#45;completeness_aware_binning&#45;&gt;call&#45;binning -->
<g id="edge10" class="edge">
<title>call&#45;completeness_aware_binning&#45;&gt;call&#45;binning</title>
<path fill="none" stroke="black" d="M137.29,-378.7C148.24,-368.84 161.59,-355.9 172,-343 187.63,-323.62 202.3,-299.47 212.54,-281.22"/>
<polygon fill="black" stroke="black" points="215.55,-283.01 217.31,-272.56 209.42,-279.63 215.55,-283.01"/>
</g>
<!-- call&#45;completeness_aware_binning&#45;&gt;call&#45;checkm2 -->
<g id="edge13" class="edge">
<title>call&#45;completeness_aware_binning&#45;&gt;call&#45;checkm2</title>
<path fill="none" stroke="black" d="M123.75,-378.68C135.63,-348.73 161.63,-285.64 189,-235 193.73,-226.25 199.39,-217.02 204.73,-208.76"/>
<polygon fill="black" stroke="black" points="207.57,-210.81 210.16,-200.53 201.73,-206.95 207.57,-210.81"/>
</g>
<!-- call&#45;completeness_aware_binning&#45;&gt;call&#45;gtdbtk -->
<g id="edge18" class="edge">
<title>call&#45;completeness_aware_binning&#45;&gt;call&#45;gtdbtk</title>
<path fill="none" stroke="black" d="M119.68,-378.79C127.15,-330.81 148.26,-195.22 157.54,-135.66"/>
<polygon fill="black" stroke="black" points="160.96,-136.4 159.04,-125.98 154.05,-135.33 160.96,-136.4"/>
</g>
<!-- call&#45;completeness_aware_binning&#45;&gt;call&#45;mag -->
<g id="edge22" class="edge">
<title>call&#45;completeness_aware_binning&#45;&gt;call&#45;mag</title>
<path fill="none" stroke="black" d="M109.92,-378.85C99.69,-352.49 82,-300.21 82,-254 82,-254 82,-254 82,-180 82,-134.68 93.72,-119.82 126,-88 147.31,-66.99 178.48,-53.33 203,-45.16"/>
<polygon fill="black" stroke="black" points="203.8,-48.57 212.29,-42.23 201.7,-41.9 203.8,-48.57"/>
</g>
<!-- call&#45;coverage&#45;&gt;call&#45;binning -->
<g id="edge11" class="edge">
<title>call&#45;coverage&#45;&gt;call&#45;binning</title>
<path fill="none" stroke="black" d="M278.19,-306.7C270.12,-298.39 260.3,-288.28 251.42,-279.14"/>
<polygon fill="black" stroke="black" points="254.15,-276.92 244.67,-272.19 249.13,-281.8 254.15,-276.92"/>
</g>
<!-- call&#45;coverage&#45;&gt;call&#45;checkm2 -->
<g id="edge14" class="edge">
<title>call&#45;coverage&#45;&gt;call&#45;checkm2</title>
<path fill="none" stroke="black" d="M291.02,-306.54C286.38,-288.05 277.69,-258.35 265,-235 259.87,-225.56 253.04,-216.09 246.38,-207.82"/>
<polygon fill="black" stroke="black" points="249.11,-205.64 240,-200.22 243.75,-210.13 249.11,-205.64"/>
</g>
<!-- call&#45;binning&#45;&gt;call&#45;checkm2 -->
<g id="edge15" class="edge">
<title>call&#45;binning&#45;&gt;call&#45;checkm2</title>
<path fill="none" stroke="black" d="M226.01,-234.7C225.59,-227.41 225.1,-218.73 224.63,-210.54"/>
<polygon fill="black" stroke="black" points="228.13,-210.4 224.06,-200.62 221.14,-210.8 228.13,-210.4"/>
</g>
<!-- call&#45;binning&#45;&gt;call&#45;gtdbtk -->
<g id="edge20" class="edge">
<title>call&#45;binning&#45;&gt;call&#45;gtdbtk</title>
<path fill="none" stroke="black" d="M207.8,-234.59C198.34,-224.99 187.59,-212.32 181,-199 171.22,-179.21 166.47,-154.63 164.16,-135.86"/>
<polygon fill="black" stroke="black" points="167.65,-135.55 163.13,-125.97 160.69,-136.28 167.65,-135.55"/>
</g>
<!-- call&#45;binning&#45;&gt;call&#45;mag -->
<g id="edge25" class="edge">
<title>call&#45;binning&#45;&gt;call&#45;mag</title>
<path fill="none" stroke="black" d="M243.46,-234.92C251.65,-225.22 260.7,-212.37 265,-199 279.89,-152.68 264.64,-96.02 252.57,-62.87"/>
<polygon fill="black" stroke="black" points="255.87,-61.69 249.03,-53.59 249.33,-64.19 255.87,-61.69"/>
</g>
<!-- call&#45;checkm2&#45;&gt;call&#45;gtdbtk -->
<g id="edge19" class="edge">
<title>call&#45;checkm2&#45;&gt;call&#45;gtdbtk</title>
<path fill="none" stroke="black" d="M208.54,-162.7C201.15,-153.86 192,-142.91 183.78,-133.07"/>
<polygon fill="black" stroke="black" points="186.63,-131.02 177.53,-125.59 181.26,-135.51 186.63,-131.02"/>
</g>
<!-- call&#45;checkm2&#45;&gt;call&#45;mag -->
<g id="edge23" class="edge">
<title>call&#45;checkm2&#45;&gt;call&#45;mag</title>
<path fill="none" stroke="black" d="M225.17,-162.51C228.23,-137.88 233.84,-92.71 237.49,-63.28"/>
<polygon fill="black" stroke="black" points="240.93,-63.96 238.69,-53.6 233.99,-63.1 240.93,-63.96"/>
</g>
<!-- if&#45;L119C2 -->
<!-- call&#45;checkm2&#45;&gt;if&#45;L119C2 -->
<g id="edge17" class="edge">
<title>call&#45;checkm2&#45;&gt;if&#45;L119C2</title>
<path fill="none" stroke="black" d="M220.39,-162.7C220.37,-162.55 220.35,-162.4 220.32,-162.24"/>
<polygon fill="black" stroke="black" points="224.41,-165.86 219.46,-156.49 217.49,-166.9 224.41,-165.86"/>
</g>
<!-- call&#45;gtdbtk&#45;&gt;call&#45;mag -->
<g id="edge24" class="edge">
<title>call&#45;gtdbtk&#45;&gt;call&#45;mag</title>
<path fill="none" stroke="black" d="M181.53,-87.7C191.02,-79.28 202.61,-69.02 213.02,-59.79"/>
<polygon fill="black" stroke="black" points="215.13,-62.6 220.29,-53.35 210.48,-57.36 215.13,-62.6"/>
</g>
</g>
</svg>
