<?xml version="1.0" encoding="UTF-8" standalone="no"?>
<!DOCTYPE svg PUBLIC "-//W3C//DTD SVG 1.1//EN"
 "http://www.w3.org/Graphics/SVG/1.1/DTD/svg11.dtd">
<!-- Generated by graphviz version 7.1.0 (20230121.1956)
 -->
<!-- Pages: 1 -->
<svg width="394pt" height="714pt"
 viewBox="0.00 0.00 394.39 714.00" xmlns="http://www.w3.org/2000/svg" xmlns:xlink="http://www.w3.org/1999/xlink">
<g id="graph0" class="graph" transform="scale(1 1) rotate(0) translate(4 710)">
<polygon fill="white" stroke="none" points="-4,4 -4,-710 390.39,-710 390.39,4 -4,4"/>
<g id="clust1" class="cluster">
<title>cluster&#45;if&#45;L59C2</title>
<polygon fill="none" stroke="black" points="146.39,-515 146.39,-590 279.39,-590 279.39,-515 146.39,-515"/>
<text text-anchor="middle" x="212.89" y="-574.8" font-family="Times,serif" font-size="14.00">if(run_bam_to_fastq)</text>
</g>
<g id="clust2" class="cluster">
<title>cluster&#45;if&#45;L120C2</title>
<polygon fill="none" stroke="black" points="59.39,-8 59.39,-155 304.39,-155 304.39,-8 59.39,-8"/>
<text text-anchor="middle" x="181.89" y="-139.8" font-family="Times,serif" font-size="14.00">if(checkm2.passed_bin_count_nonempty)</text>
</g>
<!-- call&#45;backend_configuration -->
<g id="node1" class="node">
<title>call&#45;backend_configuration</title>
<polygon fill="none" stroke="black" points="232.89,-700 103.89,-700 103.89,-676 232.89,-676 244.89,-688 232.89,-700"/>
<text text-anchor="middle" x="174.39" y="-684.3" font-family="Times,serif" font-size="14.00">backend_configuration</text>
</g>
<!-- decl&#45;default_runtime_attributes -->
<g id="node2" class="node">
<title>decl&#45;default_runtime_attributes</title>
<text text-anchor="middle" x="174.39" y="-612.3" font-family="Times,serif" font-size="14.00">default_runtime_attributes</text>
</g>
<!-- call&#45;backend_configuration&#45;&gt;decl&#45;default_runtime_attributes -->
<g id="edge1" class="edge">
<title>call&#45;backend_configuration&#45;&gt;decl&#45;default_runtime_attributes</title>
<path fill="none" stroke="black" d="M174.39,-669.7C174.39,-662.21 174.39,-653.26 174.39,-644.88"/>
<polygon fill="black" stroke="black" points="177.89,-645.14 174.39,-635.14 170.89,-645.14 177.89,-645.14"/>
</g>
<!-- call&#45;bam_to_fastq -->
<g id="node3" class="node">
<title>call&#45;bam_to_fastq</title>
<polygon fill="none" stroke="black" points="255.89,-553 176.89,-553 176.89,-529 255.89,-529 267.89,-541 255.89,-553"/>
<text text-anchor="middle" x="222.39" y="-537.3" font-family="Times,serif" font-size="14.00">bam_to_fastq</text>
</g>
<!-- decl&#45;default_runtime_attributes&#45;&gt;call&#45;bam_to_fastq -->
<g id="edge2" class="edge">
<title>decl&#45;default_runtime_attributes&#45;&gt;call&#45;bam_to_fastq</title>
<path fill="none" stroke="black" d="M185.53,-598.07C191.26,-589.35 198.38,-578.52 204.84,-568.7"/>
<polygon fill="black" stroke="black" points="207.59,-570.89 210.16,-560.61 201.74,-567.04 207.59,-570.89"/>
</g>
<!-- call&#45;hifiasm_meta -->
<g id="node5" class="node">
<title>call&#45;hifiasm_meta</title>
<polygon fill="none" stroke="black" points="282.39,-481 202.39,-481 202.39,-457 282.39,-457 294.39,-469 282.39,-481"/>
<text text-anchor="middle" x="248.39" y="-465.3" font-family="Times,serif" font-size="14.00">hifiasm_meta</text>
</g>
<!-- decl&#45;default_runtime_attributes&#45;&gt;call&#45;hifiasm_meta -->
<g id="edge4" class="edge">
<title>decl&#45;default_runtime_attributes&#45;&gt;call&#45;hifiasm_meta</title>
<path fill="none" stroke="black" d="M254.82,-603.51C268.07,-600.02 278.95,-595.58 283.39,-590 304.16,-563.93 294.21,-546.53 283.39,-515 281.08,-508.24 277.28,-501.72 273.03,-495.83"/>
<polygon fill="black" stroke="black" points="276.03,-493.98 267.06,-488.35 270.56,-498.35 276.03,-493.98"/>
</g>
<!-- call&#45;completeness_aware_binning -->
<g id="node6" class="node">
<title>call&#45;completeness_aware_binning</title>
<polygon fill="none" stroke="black" points="269.89,-409 104.89,-409 104.89,-385 269.89,-385 281.89,-397 269.89,-409"/>
<text text-anchor="middle" x="193.39" y="-393.3" font-family="Times,serif" font-size="14.00">completeness_aware_binning</text>
</g>
<!-- decl&#45;default_runtime_attributes&#45;&gt;call&#45;completeness_aware_binning -->
<g id="edge5" class="edge">
<title>decl&#45;default_runtime_attributes&#45;&gt;call&#45;completeness_aware_binning</title>
<path fill="none" stroke="black" d="M147.99,-598.02C145.76,-595.59 143.82,-592.91 142.39,-590 127.78,-560.04 135.59,-547.63 142.39,-515 149.11,-482.79 165.19,-448.58 177.52,-425.53"/>
<polygon fill="black" stroke="black" points="180.57,-427.25 182.31,-416.8 174.43,-423.88 180.57,-427.25"/>
</g>
<!-- call&#45;coverage -->
<g id="node7" class="node">
<title>call&#45;coverage</title>
<polygon fill="none" stroke="black" points="274.89,-337 221.89,-337 221.89,-313 274.89,-313 286.89,-325 274.89,-337"/>
<text text-anchor="middle" x="254.39" y="-321.3" font-family="Times,serif" font-size="14.00">coverage</text>
</g>
<!-- decl&#45;default_runtime_attributes&#45;&gt;call&#45;coverage -->
<g id="edge7" class="edge">
<title>decl&#45;default_runtime_attributes&#45;&gt;call&#45;coverage</title>
<path fill="none" stroke="black" d="M254.67,-607.68C276.66,-603.94 296.39,-598.34 303.39,-590 363.69,-518.16 341.87,-465.82 306.39,-379 302.12,-368.55 294.69,-359.05 286.76,-351.07"/>
<polygon fill="black" stroke="black" points="289.24,-348.59 279.53,-344.35 284.47,-353.72 289.24,-348.59"/>
</g>
<!-- call&#45;binning -->
<g id="node8" class="node">
<title>call&#45;binning</title>
<polygon fill="none" stroke="black" points="153.39,-265 107.39,-265 107.39,-241 153.39,-241 165.39,-253 153.39,-265"/>
<text text-anchor="middle" x="136.39" y="-249.3" font-family="Times,serif" font-size="14.00">binning</text>
</g>
<!-- decl&#45;default_runtime_attributes&#45;&gt;call&#45;binning -->
<g id="edge11" class="edge">
<title>decl&#45;default_runtime_attributes&#45;&gt;call&#45;binning</title>
<path fill="none" stroke="black" d="M138.83,-598.26C135.39,-595.79 132.17,-593.04 129.39,-590 90.09,-546.94 76.39,-528.3 76.39,-470 76.39,-470 76.39,-470 76.39,-396 76.39,-353.1 99.92,-308.24 117.51,-280.7"/>
<polygon fill="black" stroke="black" points="120.25,-282.91 122.84,-272.64 114.41,-279.06 120.25,-282.91"/>
</g>
<!-- call&#45;checkm2 -->
<g id="node9" class="node">
<title>call&#45;checkm2</title>
<polygon fill="none" stroke="black" points="186.39,-193 132.39,-193 132.39,-169 186.39,-169 198.39,-181 186.39,-193"/>
<text text-anchor="middle" x="165.39" y="-177.3" font-family="Times,serif" font-size="14.00">checkm2</text>
</g>
<!-- decl&#45;default_runtime_attributes&#45;&gt;call&#45;checkm2 -->
<g id="edge14" class="edge">
<title>decl&#45;default_runtime_attributes&#45;&gt;call&#45;checkm2</title>
<path fill="none" stroke="black" d="M94.2,-602.18C87.7,-598.95 81.63,-594.94 76.39,-590 35.73,-551.58 38.39,-525.94 38.39,-470 38.39,-470 38.39,-470 38.39,-324 38.39,-271.78 86.7,-229.96 123.73,-205.57"/>
<polygon fill="black" stroke="black" points="125.51,-208.59 132.07,-200.27 121.75,-202.68 125.51,-208.59"/>
</g>
<!-- call&#45;gtdbtk -->
<g id="node10" class="node">
<title>call&#45;gtdbtk</title>
<polygon fill="none" stroke="black" points="134.39,-118 92.39,-118 92.39,-94 134.39,-94 146.39,-106 134.39,-118"/>
<text text-anchor="middle" x="119.39" y="-102.3" font-family="Times,serif" font-size="14.00">gtdbtk</text>
</g>
<!-- decl&#45;default_runtime_attributes&#45;&gt;call&#45;gtdbtk -->
<g id="edge18" class="edge">
<title>decl&#45;default_runtime_attributes&#45;&gt;call&#45;gtdbtk</title>
<path fill="none" stroke="black" d="M94.1,-607.82C68.65,-604.03 44.69,-598.36 35.39,-590 -5.91,-552.85 0.39,-525.56 0.39,-470 0.39,-470 0.39,-470 0.39,-252 0.39,-199.24 48.06,-155.18 83.06,-129.94"/>
<polygon fill="black" stroke="black" points="84.66,-133.1 90.85,-124.5 80.65,-127.36 84.66,-133.1"/>
</g>
<!-- call&#45;mag -->
<g id="node11" class="node">
<title>call&#45;mag</title>
<polygon fill="none" stroke="black" points="209.39,-46 167.39,-46 167.39,-22 209.39,-22 221.39,-34 209.39,-46"/>
<text text-anchor="middle" x="194.39" y="-30.3" font-family="Times,serif" font-size="14.00">mag</text>
</g>
<!-- decl&#45;default_runtime_attributes&#45;&gt;call&#45;mag -->
<g id="edge21" class="edge">
<title>decl&#45;default_runtime_attributes&#45;&gt;call&#45;mag</title>
<path fill="none" stroke="black" d="M254.57,-609.79C288.18,-606.16 322.45,-600.08 335.39,-590 381.12,-554.4 386.39,-527.95 386.39,-470 386.39,-470 386.39,-470 386.39,-180 386.39,-103.6 288.39,-62.35 232.42,-45.03"/>
<polygon fill="black" stroke="black" points="233.53,-41.71 222.95,-42.22 231.54,-48.42 233.53,-41.71"/>
</g>
<!-- call&#45;bam_to_fastq&#45;&gt;call&#45;hifiasm_meta -->
<g id="edge3" class="edge">
<title>call&#45;bam_to_fastq&#45;&gt;call&#45;hifiasm_meta</title>
<path fill="none" stroke="black" d="M228.82,-522.7C231.62,-515.15 234.98,-506.12 238.11,-497.68"/>
<polygon fill="black" stroke="black" points="241.31,-499.12 241.51,-488.52 234.75,-496.68 241.31,-499.12"/>
</g>
<!-- if&#45;L59C2 -->
<!-- call&#45;hifiasm_meta&#45;&gt;call&#45;completeness_aware_binning -->
<g id="edge6" class="edge">
<title>call&#45;hifiasm_meta&#45;&gt;call&#45;completeness_aware_binning</title>
<path fill="none" stroke="black" d="M234.8,-450.7C228.47,-442.64 220.81,-432.89 213.81,-423.98"/>
<polygon fill="black" stroke="black" points="216.7,-422 207.77,-416.29 211.19,-426.32 216.7,-422"/>
</g>
<!-- call&#45;hifiasm_meta&#45;&gt;call&#45;coverage -->
<g id="edge9" class="edge">
<title>call&#45;hifiasm_meta&#45;&gt;call&#45;coverage</title>
<path fill="none" stroke="black" d="M267.43,-450.84C276.57,-441.3 286.56,-428.62 291.39,-415 296.74,-399.92 296.19,-394.26 291.39,-379 288.39,-369.46 283,-360.14 277.24,-352.04"/>
<polygon fill="black" stroke="black" points="280.21,-350.17 271.35,-344.36 274.65,-354.42 280.21,-350.17"/>
</g>
<!-- call&#45;completeness_aware_binning&#45;&gt;call&#45;coverage -->
<g id="edge8" class="edge">
<title>call&#45;completeness_aware_binning&#45;&gt;call&#45;coverage</title>
<path fill="none" stroke="black" d="M208.47,-378.7C215.56,-370.56 224.17,-360.69 232,-351.7"/>
<polygon fill="black" stroke="black" points="234.56,-354.08 238.49,-344.25 229.29,-349.49 234.56,-354.08"/>
</g>
<!-- call&#45;completeness_aware_binning&#45;&gt;call&#45;binning -->
<g id="edge12" class="edge">
<title>call&#45;completeness_aware_binning&#45;&gt;call&#45;binning</title>
<path fill="none" stroke="black" d="M186.4,-378.59C176.69,-354.4 159.02,-310.36 147.49,-281.65"/>
<polygon fill="black" stroke="black" points="150.8,-280.49 143.83,-272.52 144.3,-283.1 150.8,-280.49"/>
</g>
<!-- call&#45;completeness_aware_binning&#45;&gt;call&#45;checkm2 -->
<g id="edge15" class="edge">
<title>call&#45;completeness_aware_binning&#45;&gt;call&#45;checkm2</title>
<path fill="none" stroke="black" d="M191.63,-378.57C188.57,-348.99 181.89,-287.1 174.39,-235 173.25,-227.02 171.85,-218.4 170.5,-210.47"/>
<polygon fill="black" stroke="black" points="173.95,-209.89 168.79,-200.64 167.06,-211.09 173.95,-209.89"/>
</g>
<!-- call&#45;coverage&#45;&gt;call&#45;binning -->
<g id="edge10" class="edge">
<title>call&#45;coverage&#45;&gt;call&#45;binning</title>
<path fill="none" stroke="black" d="M224.92,-306.52C209.89,-297.6 191.4,-286.63 175.22,-277.03"/>
<polygon fill="black" stroke="black" points="177.18,-274.12 166.79,-272.03 173.61,-280.15 177.18,-274.12"/>
</g>
<!-- call&#45;coverage&#45;&gt;call&#45;checkm2 -->
<g id="edge13" class="edge">
<title>call&#45;coverage&#45;&gt;call&#45;checkm2</title>
<path fill="none" stroke="black" d="M246.45,-306.74C237.75,-288.41 222.96,-258.86 207.39,-235 201.36,-225.76 194.1,-216.16 187.32,-207.71"/>
<polygon fill="black" stroke="black" points="190.24,-205.75 181.2,-200.23 184.83,-210.18 190.24,-205.75"/>
</g>
<!-- call&#45;binning&#45;&gt;call&#45;checkm2 -->
<g id="edge16" class="edge">
<title>call&#45;binning&#45;&gt;call&#45;checkm2</title>
<path fill="none" stroke="black" d="M143.56,-234.7C146.69,-227.15 150.43,-218.12 153.93,-209.68"/>
<polygon fill="black" stroke="black" points="157.13,-211.08 157.73,-200.5 150.67,-208.4 157.13,-211.08"/>
</g>
<!-- call&#45;checkm2&#45;&gt;call&#45;gtdbtk -->
<g id="edge19" class="edge">
<title>call&#45;checkm2&#45;&gt;call&#45;gtdbtk</title>
<path fill="none" stroke="black" d="M154.49,-162.7C149.09,-154.13 142.44,-143.58 136.39,-133.97"/>
<polygon fill="black" stroke="black" points="139.48,-132.3 131.18,-125.71 133.55,-136.04 139.48,-132.3"/>
</g>
<!-- call&#45;checkm2&#45;&gt;call&#45;mag -->
<g id="edge22" class="edge">
<title>call&#45;checkm2&#45;&gt;call&#45;mag</title>
<path fill="none" stroke="black" d="M172.9,-162.69C173.83,-160.14 174.7,-157.52 175.39,-155 183.83,-124.38 188.91,-88.27 191.67,-63.72"/>
<polygon fill="black" stroke="black" points="195.14,-64.16 192.72,-53.85 188.18,-63.43 195.14,-64.16"/>
</g>
<!-- if&#45;L120C2 -->
<!-- call&#45;checkm2&#45;&gt;if&#45;L120C2 -->
<g id="edge17" class="edge">
<title>call&#45;checkm2&#45;&gt;if&#45;L120C2</title>
<path fill="none" stroke="black" d="M165.39,-162.7C165.39,-162.55 165.39,-162.4 165.39,-162.24"/>
<polygon fill="black" stroke="black" points="168.89,-166.51 165.39,-156.51 161.89,-166.51 168.89,-166.51"/>
</g>
<!-- call&#45;gtdbtk&#45;&gt;call&#45;mag -->
<g id="edge20" class="edge">
<title>call&#45;gtdbtk&#45;&gt;call&#45;mag</title>
<path fill="none" stroke="black" d="M137.93,-87.7C146.86,-79.37 157.73,-69.22 167.54,-60.07"/>
<polygon fill="black" stroke="black" points="169.78,-62.76 174.7,-53.38 165,-57.64 169.78,-62.76"/>
</g>
</g>
</svg>
