<?xml version="1.0" encoding="UTF-8" standalone="no"?>
<!DOCTYPE svg PUBLIC "-//W3C//DTD SVG 1.1//EN"
 "http://www.w3.org/Graphics/SVG/1.1/DTD/svg11.dtd">
<!-- Generated by graphviz version 7.1.0 (20230121.1956)
 -->
<!-- Pages: 1 -->
<svg width="291pt" height="479pt"
 viewBox="0.00 0.00 291.10 479.00" xmlns="http://www.w3.org/2000/svg" xmlns:xlink="http://www.w3.org/1999/xlink">
<g id="graph0" class="graph" transform="scale(1 1) rotate(0) translate(4 475)">
<polygon fill="white" stroke="none" points="-4,4 -4,-475 287.1,-475 287.1,4 -4,4"/>
<g id="clust1" class="cluster">
<title>cluster&#45;if&#45;L45C2</title>
<polygon fill="none" stroke="black" points="92.5,-280 92.5,-355 225.5,-355 225.5,-280 92.5,-280"/>
<text text-anchor="middle" x="159" y="-339.8" font-family="Times,serif" font-size="14.00">if(run_bam_to_fastq)</text>
</g>
<!-- call&#45;backend_configuration -->
<g id="node1" class="node">
<title>call&#45;backend_configuration</title>
<polygon fill="none" stroke="black" points="226,-465 97,-465 97,-441 226,-441 238,-453 226,-465"/>
<text text-anchor="middle" x="167.5" y="-449.3" font-family="Times,serif" font-size="14.00">backend_configuration</text>
</g>
<!-- decl&#45;default_runtime_attributes -->
<g id="node2" class="node">
<title>decl&#45;default_runtime_attributes</title>
<text text-anchor="middle" x="167.5" y="-377.3" font-family="Times,serif" font-size="14.00">default_runtime_attributes</text>
</g>
<!-- call&#45;backend_configuration&#45;&gt;decl&#45;default_runtime_attributes -->
<g id="edge1" class="edge">
<title>call&#45;backend_configuration&#45;&gt;decl&#45;default_runtime_attributes</title>
<path fill="none" stroke="black" d="M167.5,-434.7C167.5,-427.21 167.5,-418.26 167.5,-409.88"/>
<polygon fill="black" stroke="black" points="171,-410.14 167.5,-400.14 164,-410.14 171,-410.14"/>
</g>
<!-- call&#45;bam_to_fastq -->
<g id="node3" class="node">
<title>call&#45;bam_to_fastq</title>
<polygon fill="none" stroke="black" points="201,-318 122,-318 122,-294 201,-294 213,-306 201,-318"/>
<text text-anchor="middle" x="167.5" y="-302.3" font-family="Times,serif" font-size="14.00">bam_to_fastq</text>
</g>
<!-- decl&#45;default_runtime_attributes&#45;&gt;call&#45;bam_to_fastq -->
<g id="edge2" class="edge">
<title>decl&#45;default_runtime_attributes&#45;&gt;call&#45;bam_to_fastq</title>
<path fill="none" stroke="black" d="M167.5,-363.07C167.5,-354.9 167.5,-344.86 167.5,-335.55"/>
<polygon fill="black" stroke="black" points="171,-335.86 167.5,-325.86 164,-335.86 171,-335.86"/>
</g>
<!-- call&#45;assembly -->
<g id="node5" class="node">
<title>call&#45;assembly</title>
<polygon fill="none" stroke="black" points="155.5,-246 99.5,-246 99.5,-222 155.5,-222 167.5,-234 155.5,-246"/>
<text text-anchor="middle" x="133.5" y="-230.3" font-family="Times,serif" font-size="14.00">assembly</text>
</g>
<!-- decl&#45;default_runtime_attributes&#45;&gt;call&#45;assembly -->
<g id="edge4" class="edge">
<title>decl&#45;default_runtime_attributes&#45;&gt;call&#45;assembly</title>
<path fill="none" stroke="black" d="M96.13,-363.03C93.29,-360.68 90.71,-358.02 88.5,-355 68.8,-328.11 75.74,-310.8 88.5,-280 91.51,-272.73 96.33,-266.02 101.72,-260.13"/>
<polygon fill="black" stroke="black" points="104.12,-262.67 108.79,-253.16 99.21,-257.68 104.12,-262.67"/>
</g>
<!-- call&#45;completeness_aware_binning -->
<g id="node6" class="node">
<title>call&#45;completeness_aware_binning</title>
<polygon fill="none" stroke="black" points="165,-174 0,-174 0,-150 165,-150 177,-162 165,-174"/>
<text text-anchor="middle" x="88.5" y="-158.3" font-family="Times,serif" font-size="14.00">completeness_aware_binning</text>
</g>
<!-- decl&#45;default_runtime_attributes&#45;&gt;call&#45;completeness_aware_binning -->
<g id="edge5" class="edge">
<title>decl&#45;default_runtime_attributes&#45;&gt;call&#45;completeness_aware_binning</title>
<path fill="none" stroke="black" d="M87.01,-364.05C80.31,-361.39 75.1,-358.38 72.5,-355 35.63,-307.18 58.72,-231.32 75.54,-190.75"/>
<polygon fill="black" stroke="black" points="78.7,-192.26 79.46,-181.69 72.27,-189.48 78.7,-192.26"/>
</g>
<!-- call&#45;coverage -->
<g id="node7" class="node">
<title>call&#45;coverage</title>
<polygon fill="none" stroke="black" points="226,-102 173,-102 173,-78 226,-78 238,-90 226,-102"/>
<text text-anchor="middle" x="205.5" y="-86.3" font-family="Times,serif" font-size="14.00">coverage</text>
</g>
<!-- decl&#45;default_runtime_attributes&#45;&gt;call&#45;coverage -->
<g id="edge8" class="edge">
<title>decl&#45;default_runtime_attributes&#45;&gt;call&#45;coverage</title>
<path fill="none" stroke="black" d="M222.06,-363.14C224.89,-360.78 227.42,-358.08 229.5,-355 278.92,-281.79 240.75,-169.98 218.55,-118.58"/>
<polygon fill="black" stroke="black" points="221.84,-117.38 214.58,-109.67 215.45,-120.23 221.84,-117.38"/>
</g>
<!-- call&#45;binning -->
<g id="node8" class="node">
<title>call&#45;binning</title>
<polygon fill="none" stroke="black" points="222.5,-30 176.5,-30 176.5,-6 222.5,-6 234.5,-18 222.5,-30"/>
<text text-anchor="middle" x="205.5" y="-14.3" font-family="Times,serif" font-size="14.00">binning</text>
</g>
<!-- decl&#45;default_runtime_attributes&#45;&gt;call&#45;binning -->
<g id="edge10" class="edge">
<title>decl&#45;default_runtime_attributes&#45;&gt;call&#45;binning</title>
<path fill="none" stroke="black" d="M244.81,-363.19C248.32,-360.8 251.59,-358.09 254.5,-355 292.01,-315.23 281.5,-289.67 281.5,-235 281.5,-235 281.5,-235 281.5,-161 281.5,-116.03 251.51,-71.52 229.21,-44.64"/>
<polygon fill="black" stroke="black" points="232.14,-42.69 222.98,-37.38 226.83,-47.25 232.14,-42.69"/>
</g>
<!-- call&#45;bam_to_fastq&#45;&gt;call&#45;assembly -->
<g id="edge3" class="edge">
<title>call&#45;bam_to_fastq&#45;&gt;call&#45;assembly</title>
<path fill="none" stroke="black" d="M159.1,-287.7C155.39,-280.07 150.94,-270.92 146.81,-262.4"/>
<polygon fill="black" stroke="black" points="149.99,-260.93 142.47,-253.47 143.69,-263.99 149.99,-260.93"/>
</g>
<!-- if&#45;L45C2 -->
<!-- call&#45;assembly&#45;&gt;call&#45;completeness_aware_binning -->
<g id="edge6" class="edge">
<title>call&#45;assembly&#45;&gt;call&#45;completeness_aware_binning</title>
<path fill="none" stroke="black" d="M122.38,-215.7C117.31,-207.81 111.2,-198.3 105.57,-189.55"/>
<polygon fill="black" stroke="black" points="108.67,-187.9 100.31,-181.38 102.78,-191.68 108.67,-187.9"/>
</g>
<!-- call&#45;assembly&#45;&gt;call&#45;coverage -->
<g id="edge7" class="edge">
<title>call&#45;assembly&#45;&gt;call&#45;coverage</title>
<path fill="none" stroke="black" d="M156.17,-215.64C166.93,-206.22 179.04,-193.72 186.5,-180 196.6,-161.41 201.33,-137.92 203.55,-119.74"/>
<polygon fill="black" stroke="black" points="207.02,-120.21 204.54,-109.91 200.06,-119.5 207.02,-120.21"/>
</g>
<!-- call&#45;completeness_aware_binning&#45;&gt;call&#45;coverage -->
<g id="edge9" class="edge">
<title>call&#45;completeness_aware_binning&#45;&gt;call&#45;coverage</title>
<path fill="none" stroke="black" d="M117.72,-143.52C132.63,-134.6 150.96,-123.63 167.01,-114.03"/>
<polygon fill="black" stroke="black" points="168.57,-117.18 175.35,-109.04 164.97,-111.17 168.57,-117.18"/>
</g>
<!-- call&#45;completeness_aware_binning&#45;&gt;call&#45;binning -->
<g id="edge11" class="edge">
<title>call&#45;completeness_aware_binning&#45;&gt;call&#45;binning</title>
<path fill="none" stroke="black" d="M102.85,-143.59C123.22,-118.86 160.67,-73.41 184.27,-44.77"/>
<polygon fill="black" stroke="black" points="186.78,-47.22 190.44,-37.28 181.38,-42.77 186.78,-47.22"/>
</g>
<!-- call&#45;coverage&#45;&gt;call&#45;binning -->
<g id="edge12" class="edge">
<title>call&#45;coverage&#45;&gt;call&#45;binning</title>
<path fill="none" stroke="black" d="M205.5,-71.7C205.5,-64.41 205.5,-55.73 205.5,-47.54"/>
<polygon fill="black" stroke="black" points="209,-47.62 205.5,-37.62 202,-47.62 209,-47.62"/>
</g>
</g>
</svg>
