<?xml version="1.0" encoding="UTF-8" standalone="no"?>
<!DOCTYPE svg PUBLIC "-//W3C//DTD SVG 1.1//EN"
 "http://www.w3.org/Graphics/SVG/1.1/DTD/svg11.dtd">
<!-- Generated by graphviz version 7.1.0 (20230121.1956)
 -->
<!-- Pages: 1 -->
<svg width="369pt" height="351pt"
 viewBox="0.00 0.00 368.50 351.00" xmlns="http://www.w3.org/2000/svg" xmlns:xlink="http://www.w3.org/1999/xlink">
<g id="graph0" class="graph" transform="scale(1 1) rotate(0) translate(4 347)">
<polygon fill="white" stroke="none" points="-4,4 -4,-347 364.5,-347 364.5,4 -4,4"/>
<g id="clust1" class="cluster">
<title>cluster&#45;if&#45;L81C2</title>
<polygon fill="none" stroke="black" points="58.5,-8 58.5,-83 352.5,-83 352.5,-8 58.5,-8"/>
<text text-anchor="middle" x="205.5" y="-67.8" font-family="Times,serif" font-size="14.00">if(read_int(bin_contigs.passed_bin_count_txt) &gt; 0)</text>
</g>
<!-- call&#45;backend_configuration -->
<g id="node1" class="node">
<title>call&#45;backend_configuration</title>
<polygon fill="none" stroke="black" points="236,-337 107,-337 107,-313 236,-313 248,-325 236,-337"/>
<text text-anchor="middle" x="177.5" y="-321.3" font-family="Times,serif" font-size="14.00">backend_configuration</text>
</g>
<!-- decl&#45;default_runtime_attributes -->
<g id="node2" class="node">
<title>decl&#45;default_runtime_attributes</title>
<text text-anchor="middle" x="177.5" y="-249.3" font-family="Times,serif" font-size="14.00">default_runtime_attributes</text>
</g>
<!-- call&#45;backend_configuration&#45;&gt;decl&#45;default_runtime_attributes -->
<g id="edge1" class="edge">
<title>call&#45;backend_configuration&#45;&gt;decl&#45;default_runtime_attributes</title>
<path fill="none" stroke="black" d="M177.5,-306.7C177.5,-299.21 177.5,-290.26 177.5,-281.88"/>
<polygon fill="black" stroke="black" points="181,-282.14 177.5,-272.14 174,-282.14 181,-282.14"/>
</g>
<!-- call&#45;assemble_metagenomes -->
<g id="node3" class="node">
<title>call&#45;assemble_metagenomes</title>
<polygon fill="none" stroke="black" points="137,-193 0,-193 0,-169 137,-169 149,-181 137,-193"/>
<text text-anchor="middle" x="74.5" y="-177.3" font-family="Times,serif" font-size="14.00">assemble_metagenomes</text>
</g>
<!-- decl&#45;default_runtime_attributes&#45;&gt;call&#45;assemble_metagenomes -->
<g id="edge2" class="edge">
<title>decl&#45;default_runtime_attributes&#45;&gt;call&#45;assemble_metagenomes</title>
<path fill="none" stroke="black" d="M152.57,-235.05C139.6,-226.24 123.55,-215.33 109.37,-205.7"/>
<polygon fill="black" stroke="black" points="111.41,-202.85 101.17,-200.13 107.47,-208.64 111.41,-202.85"/>
</g>
<!-- call&#45;bin_contigs -->
<g id="node4" class="node">
<title>call&#45;bin_contigs</title>
<polygon fill="none" stroke="black" points="171.5,-121 103.5,-121 103.5,-97 171.5,-97 183.5,-109 171.5,-121"/>
<text text-anchor="middle" x="143.5" y="-105.3" font-family="Times,serif" font-size="14.00">bin_contigs</text>
</g>
<!-- decl&#45;default_runtime_attributes&#45;&gt;call&#45;bin_contigs -->
<g id="edge4" class="edge">
<title>decl&#45;default_runtime_attributes&#45;&gt;call&#45;bin_contigs</title>
<path fill="none" stroke="black" d="M174.25,-235.19C170.71,-217.24 164.7,-188 158.5,-163 156.49,-154.89 154.11,-146.15 151.84,-138.14"/>
<polygon fill="black" stroke="black" points="155.21,-137.2 149.07,-128.56 148.48,-139.14 155.21,-137.2"/>
</g>
<!-- call&#45;assign_taxonomy -->
<g id="node5" class="node">
<title>call&#45;assign_taxonomy</title>
<polygon fill="none" stroke="black" points="259.5,-46 159.5,-46 159.5,-22 259.5,-22 271.5,-34 259.5,-46"/>
<text text-anchor="middle" x="215.5" y="-30.3" font-family="Times,serif" font-size="14.00">assign_taxonomy</text>
</g>
<!-- decl&#45;default_runtime_attributes&#45;&gt;call&#45;assign_taxonomy -->
<g id="edge7" class="edge">
<title>decl&#45;default_runtime_attributes&#45;&gt;call&#45;assign_taxonomy</title>
<path fill="none" stroke="black" d="M180.42,-235.33C186.88,-198.44 202.45,-109.49 210.5,-63.55"/>
<polygon fill="black" stroke="black" points="213.93,-64.27 212.21,-53.82 207.03,-63.06 213.93,-64.27"/>
</g>
<!-- call&#45;assemble_metagenomes&#45;&gt;call&#45;bin_contigs -->
<g id="edge3" class="edge">
<title>call&#45;assemble_metagenomes&#45;&gt;call&#45;bin_contigs</title>
<path fill="none" stroke="black" d="M91.56,-162.7C99.74,-154.39 109.71,-144.28 118.72,-135.14"/>
<polygon fill="black" stroke="black" points="121.05,-137.76 125.58,-128.18 116.06,-132.85 121.05,-137.76"/>
</g>
<!-- call&#45;bin_contigs&#45;&gt;call&#45;assign_taxonomy -->
<g id="edge6" class="edge">
<title>call&#45;bin_contigs&#45;&gt;call&#45;assign_taxonomy</title>
<path fill="none" stroke="black" d="M160.56,-90.7C169.46,-81.67 180.53,-70.46 190.38,-60.46"/>
<polygon fill="black" stroke="black" points="192.72,-63.08 197.25,-53.51 187.73,-58.17 192.72,-63.08"/>
</g>
<!-- if&#45;L81C2 -->
<!-- call&#45;bin_contigs&#45;&gt;if&#45;L81C2 -->
<g id="edge5" class="edge">
<title>call&#45;bin_contigs&#45;&gt;if&#45;L81C2</title>
<path fill="none" stroke="black" d="M142.79,-90.7C142.78,-90.55 142.78,-90.4 142.77,-90.24"/>
<polygon fill="black" stroke="black" points="146.44,-94.36 142.53,-84.51 139.45,-94.65 146.44,-94.36"/>
</g>
</g>
</svg>
